<?xml version="1.0" encoding="UTF-8"?>
<mxfile host="Electron" agent="Mozilla/5.0 (Windows NT 10.0; Win64; x64) AppleWebKit/537.36 (KHTML, like Gecko) draw.io/28.1.2 Chrome/138.0.7204.243 Electron/37.4.0 Safari/537.36" version="28.1.2">
  <diagram id="bqe4KfkksC2Kpb0I698-" name="Página-3">
    <mxGraphModel dx="2235" dy="841" grid="1" gridSize="10" guides="1" tooltips="1" connect="1" arrows="1" fold="1" page="1" pageScale="1" pageWidth="827" pageHeight="1169" math="0" shadow="0">
      <root>
        <mxCell id="0" />
        <mxCell id="1" parent="0" />
        <mxCell id="GUGX6WQfOTojX4kOpEi--62" value="&lt;div&gt;&lt;br&gt;&lt;/div&gt;&lt;div&gt;&lt;br&gt;&lt;/div&gt;&lt;div&gt;&lt;font style=&quot;font-size: 9px;&quot;&gt;&lt;br&gt;&lt;/font&gt;&lt;/div&gt;&lt;div&gt;&lt;font style=&quot;font-size: 9px;&quot;&gt;CONFERE DADOS DE PACIENTE&lt;/font&gt;&lt;/div&gt;&lt;div&gt;&lt;font style=&quot;font-size: 9px;&quot;&gt;E CONVÊNIO SAÚDE&lt;/font&gt;&lt;/div&gt;" style="edgeStyle=orthogonalEdgeStyle;rounded=0;orthogonalLoop=1;jettySize=auto;html=1;fontFamily=Helvetica;fontSize=12;fontColor=#000000;labelBackgroundColor=none;" edge="1" parent="1">
          <mxGeometry x="0.0667" y="-21" relative="1" as="geometry">
            <mxPoint x="447.5" y="319" as="targetPoint" />
            <mxPoint x="260" y="319" as="sourcePoint" />
            <mxPoint as="offset" />
          </mxGeometry>
        </mxCell>
        <mxCell id="GUGX6WQfOTojX4kOpEi--58" style="edgeStyle=orthogonalEdgeStyle;rounded=0;orthogonalLoop=1;jettySize=auto;html=1;fontFamily=Helvetica;fontSize=12;fontColor=#000000;" edge="1" parent="1">
          <mxGeometry relative="1" as="geometry">
            <mxPoint x="-290.5" y="300" as="targetPoint" />
            <mxPoint x="-290" y="220" as="sourcePoint" />
          </mxGeometry>
        </mxCell>
        <mxCell id="o2DdpPJfDWeK0jmi44M6-1" value="O CLIENTE REALIZA A COLETA DE&amp;nbsp;&lt;div&gt;EXAMES E ENVIA PARA O LABORATÓRIO&lt;/div&gt;" style="shape=mxgraph.signs.healthcare.immunizations;html=1;pointerEvents=1;fillColor=#000000;strokeColor=none;verticalLabelPosition=bottom;verticalAlign=top;align=center;sketch=0;" vertex="1" parent="1">
          <mxGeometry x="-312" y="100" width="70" height="70" as="geometry" />
        </mxCell>
        <mxCell id="GUGX6WQfOTojX4kOpEi--60" style="edgeStyle=orthogonalEdgeStyle;rounded=0;orthogonalLoop=1;jettySize=auto;html=1;fontFamily=Helvetica;fontSize=12;fontColor=#000000;" edge="1" parent="1">
          <mxGeometry relative="1" as="geometry">
            <mxPoint x="-100" y="476.5" as="targetPoint" />
            <mxPoint x="-280" y="416.5" as="sourcePoint" />
            <Array as="points">
              <mxPoint x="-280" y="476.5" />
              <mxPoint x="-100" y="476.5" />
            </Array>
          </mxGeometry>
        </mxCell>
        <mxCell id="o2DdpPJfDWeK0jmi44M6-2" value="O LABORATÓRIO ANALISA E&amp;nbsp;&lt;div&gt;ENVIA OS RESULTADOS&lt;/div&gt;" style="shape=mxgraph.signs.science.laboratory;html=1;pointerEvents=1;fillColor=#000000;strokeColor=none;verticalLabelPosition=bottom;verticalAlign=top;align=center;sketch=0;" vertex="1" parent="1">
          <mxGeometry x="-320" y="320" width="60" height="50" as="geometry" />
        </mxCell>
        <mxCell id="GUGX6WQfOTojX4kOpEi--61" style="edgeStyle=orthogonalEdgeStyle;rounded=0;orthogonalLoop=1;jettySize=auto;html=1;fontFamily=Helvetica;fontSize=12;fontColor=#000000;" edge="1" parent="1">
          <mxGeometry relative="1" as="geometry">
            <mxPoint y="360" as="sourcePoint" />
            <mxPoint x="160" y="300" as="targetPoint" />
            <Array as="points">
              <mxPoint y="300" />
            </Array>
          </mxGeometry>
        </mxCell>
        <mxCell id="GUGX6WQfOTojX4kOpEi--64" style="edgeStyle=orthogonalEdgeStyle;rounded=0;orthogonalLoop=1;jettySize=auto;html=1;fontFamily=Helvetica;fontSize=12;fontColor=#000000;" edge="1" parent="1">
          <mxGeometry relative="1" as="geometry">
            <mxPoint y="511.5" as="sourcePoint" />
            <mxPoint x="280" y="741.25" as="targetPoint" />
            <Array as="points">
              <mxPoint y="741.25" />
            </Array>
          </mxGeometry>
        </mxCell>
        <mxCell id="o2DdpPJfDWeK0jmi44M6-3" value="EC2" style="outlineConnect=0;dashed=0;verticalLabelPosition=bottom;verticalAlign=top;align=center;html=1;shape=mxgraph.aws3.ec2;fillColor=#F58534;gradientColor=none;" vertex="1" parent="1">
          <mxGeometry x="-80" y="390" width="143" height="96.5" as="geometry" />
        </mxCell>
        <mxCell id="o2DdpPJfDWeK0jmi44M6-4" value="EBS" style="outlineConnect=0;dashed=0;verticalLabelPosition=bottom;verticalAlign=top;align=center;html=1;shape=mxgraph.aws3.volume;fillColor=#E05243;gradientColor=none;" vertex="1" parent="1">
          <mxGeometry x="190" y="282" width="52.5" height="75" as="geometry" />
        </mxCell>
        <mxCell id="GUGX6WQfOTojX4kOpEi--63" style="edgeStyle=orthogonalEdgeStyle;rounded=0;orthogonalLoop=1;jettySize=auto;html=1;fontFamily=Helvetica;fontSize=12;fontColor=#000000;" edge="1" parent="1">
          <mxGeometry relative="1" as="geometry">
            <mxPoint x="50" y="520.5" as="targetPoint" />
            <mxPoint x="570" y="320" as="sourcePoint" />
            <Array as="points">
              <mxPoint x="750" y="320.5" />
              <mxPoint x="750" y="580.5" />
            </Array>
          </mxGeometry>
        </mxCell>
        <mxCell id="GUGX6WQfOTojX4kOpEi--2" value="DYNAMODB&lt;div&gt;&lt;br&gt;&lt;/div&gt;" style="outlineConnect=0;dashed=0;verticalLabelPosition=bottom;verticalAlign=top;align=center;html=1;shape=mxgraph.aws3.dynamo_db;fillColor=#2E73B8;gradientColor=none;" vertex="1" parent="1">
          <mxGeometry x="470" y="279" width="80" height="81" as="geometry" />
        </mxCell>
        <mxCell id="GUGX6WQfOTojX4kOpEi--65" style="edgeStyle=orthogonalEdgeStyle;rounded=0;orthogonalLoop=1;jettySize=auto;html=1;fontFamily=Helvetica;fontSize=12;fontColor=#000000;" edge="1" parent="1">
          <mxGeometry relative="1" as="geometry">
            <mxPoint x="587.5" y="743" as="targetPoint" />
            <mxPoint x="414" y="743.05" as="sourcePoint" />
          </mxGeometry>
        </mxCell>
        <mxCell id="GUGX6WQfOTojX4kOpEi--3" value="S3&lt;div&gt;&lt;br&gt;&lt;/div&gt;" style="outlineConnect=0;dashed=0;verticalLabelPosition=bottom;verticalAlign=top;align=center;html=1;shape=mxgraph.aws3.s3;fillColor=#E05243;gradientColor=none;" vertex="1" parent="1">
          <mxGeometry x="300" y="670" width="86.5" height="102.5" as="geometry" />
        </mxCell>
        <mxCell id="GUGX6WQfOTojX4kOpEi--4" value="S3 GLACIER" style="sketch=0;points=[[0,0,0],[0.25,0,0],[0.5,0,0],[0.75,0,0],[1,0,0],[0,1,0],[0.25,1,0],[0.5,1,0],[0.75,1,0],[1,1,0],[0,0.25,0],[0,0.5,0],[0,0.75,0],[1,0.25,0],[1,0.5,0],[1,0.75,0]];outlineConnect=0;fontColor=#232F3E;fillColor=#7AA116;strokeColor=#ffffff;dashed=0;verticalLabelPosition=bottom;verticalAlign=top;align=center;html=1;fontSize=12;fontStyle=0;aspect=fixed;shape=mxgraph.aws4.resourceIcon;resIcon=mxgraph.aws4.glacier;" vertex="1" parent="1">
          <mxGeometry x="627" y="663.25" width="78" height="78" as="geometry" />
        </mxCell>
        <mxCell id="GUGX6WQfOTojX4kOpEi--11" value="&lt;div style=&quot;text-align: justify;&quot;&gt;&lt;span style=&quot;background-color: transparent; color: light-dark(rgb(0, 0, 0), rgb(255, 255, 255));&quot;&gt;&lt;font style=&quot;font-size: 10px;&quot;&gt;APÓS A COFERÊNCIA DE DADOS O SISTEMA ENVIA OS RESULTADOS DOS EXAMES PARA O CLIENTE E FAZ O ARMAZENAMENTO EM S3&lt;/font&gt;&lt;/span&gt;&lt;/div&gt;" style="text;strokeColor=none;align=center;fillColor=none;html=1;verticalAlign=middle;whiteSpace=wrap;rounded=0;" vertex="1" parent="1">
          <mxGeometry x="400" y="524.5" width="200" height="30" as="geometry" />
        </mxCell>
        <mxCell id="GUGX6WQfOTojX4kOpEi--17" value="&lt;div style=&quot;text-align: justify;&quot;&gt;&lt;span style=&quot;font-size: 10px; background-color: transparent; color: light-dark(rgb(0, 0, 0), rgb(255, 255, 255));&quot;&gt;APÓS 90 DIAS OS RESULTADOS ENVIADOS PARA O S3 GLACIER&lt;/span&gt;&lt;/div&gt;" style="text;strokeColor=none;align=center;fillColor=none;html=1;verticalAlign=middle;whiteSpace=wrap;rounded=0;" vertex="1" parent="1">
          <mxGeometry x="420" y="760" width="180" height="40" as="geometry" />
        </mxCell>
        <mxCell id="GUGX6WQfOTojX4kOpEi--21" value="&lt;font style=&quot;font-size: 10px;&quot;&gt;PACIENTE RECEBE O RESULTADO&lt;/font&gt;&lt;div&gt;&lt;font style=&quot;font-size: 10px;&quot;&gt;DOS EXAMES&lt;/font&gt;&lt;/div&gt;" style="shape=mxgraph.signs.healthcare.medical_library;html=1;pointerEvents=1;fillColor=#000000;strokeColor=none;verticalLabelPosition=bottom;verticalAlign=top;align=center;sketch=0;" vertex="1" parent="1">
          <mxGeometry x="-350" y="694.5" width="98" height="98" as="geometry" />
        </mxCell>
        <mxCell id="GUGX6WQfOTojX4kOpEi--57" value="&lt;font style=&quot;font-size: 10px;&quot;&gt;OS RESULTADOS SÃO SALVOS NO S3&lt;/font&gt;" style="text;strokeColor=none;align=center;fillColor=none;html=1;verticalAlign=middle;whiteSpace=wrap;rounded=0;" vertex="1" parent="1">
          <mxGeometry x="42.5" y="699.5" width="200" height="30" as="geometry" />
        </mxCell>
        <mxCell id="GUGX6WQfOTojX4kOpEi--66" style="edgeStyle=orthogonalEdgeStyle;rounded=0;orthogonalLoop=1;jettySize=auto;html=1;fontFamily=Helvetica;fontSize=12;fontColor=#000000;" edge="1" parent="1">
          <mxGeometry relative="1" as="geometry">
            <mxPoint x="-30" y="521.25" as="sourcePoint" />
            <mxPoint x="-230" y="741.25" as="targetPoint" />
            <Array as="points">
              <mxPoint x="-30" y="741.25" />
            </Array>
          </mxGeometry>
        </mxCell>
      </root>
    </mxGraphModel>
  </diagram>
</mxfile>
